<svg width="80" height="80" viewBox="0 0 80 80" fill="none" xmlns="http://www.w3.org/2000/svg">
    <path fill-rule="evenodd" clip-rule="evenodd" d="M8 12H72V12.9825H8V12ZM72 25.7544H8V26.7368H72V25.7544ZM8 39.5088H72V40.4912H8V39.5088ZM72 53.2632H8V54.2456H72V53.2632ZM72 67.0175H8V68H72V67.0175Z" fill="white" fill-opacity="0.1"/>
    <path d="M8 47C8 45.8954 8.89543 45 10 45H19C20.1046 45 21 45.8954 21 47V68H8V47Z" fill="#6CE5E8"/>
    <path d="M25 35C25 33.8954 25.8954 33 27 33H36C37.1046 33 38 33.8954 38 35V68H25V35Z" fill="#41B8D5"/>
    <path d="M42 24C42 22.8954 42.8954 22 44 22H53C54.1046 22 55 22.8954 55 24V68H42V24Z" fill="#2D8BBA"/>
    <path d="M59 14C59 12.8954 59.8954 12 61 12H70C71.1046 12 72 12.8954 72 14V68H59V14Z" fill="#2F5F98"/>
</svg>
